<svg xmlns="http://www.w3.org/2000/svg" width="1024" height="1024" viewBox="0 0 1024 1024" version="1.1"><path d="M 0 512.001 L 0 1024.002 512.250 1023.751 L 1024.500 1023.500 1024.751 511.750 L 1025.002 0 512.501 0 L 0 0 0 512.001 M 0.496 512.500 C 0.496 794.100, 0.610 909.151, 0.750 768.168 C 0.890 627.186, 0.890 396.786, 0.750 256.168 C 0.610 115.551, 0.496 230.900, 0.496 512.500 M 479.500 47.528 C 478.950 47.731, 474 48.369, 468.500 48.945 C 451.052 50.772, 433.603 53.477, 417 56.929 C 410.590 58.261, 380.983 65.870, 378 66.951 C 376.625 67.450, 371.450 69.273, 366.500 71.003 C 344.607 78.653, 330.219 84.506, 313 92.765 C 297.596 100.154, 264.349 119.370, 252.546 127.707 C 200.061 164.780, 160.711 204.643, 127.214 254.673 C 112.442 276.736, 95.337 307.589, 87.117 327 C 69.787 367.919, 58.632 407.066, 52.921 447 C 49.819 468.689, 49.004 482.146, 49.014 511.500 C 49.026 545.534, 50.704 568.176, 55.020 592.500 C 55.605 595.800, 56.510 600.975, 57.030 604 C 59.757 619.866, 72.091 664.107, 76.963 675.500 C 77.433 676.600, 79.472 681.775, 81.494 687 C 83.516 692.225, 85.874 698.075, 86.734 700 C 112.110 756.786, 143.234 802.282, 185.964 845.051 C 209.734 868.843, 229.842 885.507, 255.500 902.677 C 287.729 924.245, 329.061 945.044, 360.490 955.510 C 376.011 960.678, 400.793 968.200, 405.500 969.171 C 408.250 969.738, 412.300 970.607, 414.500 971.103 C 422.310 972.864, 438.492 975.827, 447 977.055 C 471.229 980.550, 478.472 980.960, 516 980.960 C 557.530 980.960, 564.961 980.423, 598 975.031 C 623.622 970.850, 652.486 962.759, 686.674 950.175 C 696.174 946.678, 697.029 946.297, 719.507 935.524 C 782.258 905.452, 836.528 862.285, 881.532 806.650 C 894.380 790.767, 911.045 766.687, 921.085 749.500 C 926.485 740.254, 941.016 711.859, 944.398 703.943 C 945.442 701.499, 947.087 697.700, 948.055 695.500 C 957.055 675.037, 968.563 639.411, 972.928 618.500 C 977.040 598.803, 978.626 590.177, 980.008 580 C 980.643 575.325, 981.576 568.763, 982.081 565.418 C 982.586 562.073, 982.991 540.473, 982.980 517.418 C 982.961 476.342, 982.590 469.504, 979.055 445 C 977.831 436.515, 974.872 420.353, 973.105 412.500 C 972.610 410.300, 971.884 406.925, 971.492 405 C 971.100 403.075, 969.455 396.775, 967.837 391 C 951.242 331.758, 926.355 281.450, 888.933 231.500 C 862.720 196.510, 828.066 162.552, 790.500 135.041 C 787.200 132.625, 782.839 129.377, 780.809 127.824 C 778.778 126.271, 776.834 125, 776.489 125 C 776.143 125, 773.979 123.713, 771.680 122.139 C 759.602 113.873, 720.822 92.488, 709 87.575 C 706.525 86.546, 702.475 84.826, 700 83.752 C 694.166 81.222, 693.030 80.769, 683.500 77.167 C 655.623 66.633, 644.510 63.373, 611.500 56.047 C 599.227 53.322, 586.320 51.379, 558.091 48.005 C 550.400 47.086, 481.821 46.669, 479.500 47.528 M 487.500 83.559 C 477.050 84.255, 466.700 85.112, 464.500 85.465 C 462.300 85.818, 457.575 86.550, 454 87.092 C 432.680 90.325, 424.976 91.975, 398.500 98.979 C 332.149 116.530, 260.732 158.758, 210.460 210.166 C 196.124 224.826, 185.298 236.811, 179.448 244.500 C 177.356 247.250, 173.530 252.228, 170.946 255.562 C 157.866 272.438, 138.001 304.879, 127.813 326 C 122.151 337.738, 117.845 347.270, 116.973 350 C 116.533 351.375, 113.877 358.516, 111.070 365.869 C 103.262 386.325, 95.525 413.918, 91.968 434 C 88.364 454.346, 87.498 461.086, 85.929 481 C 84.647 497.262, 85.296 544.594, 86.977 557.500 C 87.551 561.900, 88.483 569.100, 89.049 573.500 C 95.886 626.642, 116.557 686.157, 144.273 732.500 C 151.741 744.986, 164.717 764.392, 171.342 772.980 C 174.108 776.566, 177.750 781.296, 179.435 783.492 C 193.389 801.666, 225.535 834.152, 242.966 847.692 C 243.810 848.348, 248.100 851.730, 252.500 855.209 C 293.042 887.264, 343.396 913.170, 394 928.009 C 398.125 929.218, 402.625 930.568, 404 931.008 C 406.354 931.762, 408.702 932.329, 420.250 934.930 C 432.655 937.724, 437.272 938.559, 454 941.031 C 458.125 941.641, 464.200 942.541, 467.500 943.031 C 470.800 943.522, 483.282 944.457, 495.238 945.109 C 523.669 946.660, 549.802 945.343, 579 940.890 C 590.443 939.144, 598.309 937.793, 606 936.254 C 610.125 935.428, 614.625 934.538, 616 934.277 C 623.815 932.788, 654.422 923.271, 669 917.797 C 705.891 903.945, 751.775 878.391, 777.095 857.595 C 777.971 856.875, 781.796 853.879, 785.595 850.937 C 789.393 847.995, 793.257 844.893, 794.183 844.044 C 795.108 843.195, 798.332 840.475, 801.346 838 C 809.633 831.195, 836.653 803.741, 845.634 793 C 859.141 776.846, 884.312 741.805, 887.297 735 C 887.658 734.175, 889.336 731.250, 891.025 728.500 C 896.503 719.580, 913.755 683.821, 918.525 671.500 C 925.437 653.646, 931.557 633.942, 937.005 612 C 941.285 594.759, 944.191 576.173, 946.976 548.214 C 949.544 522.426, 947.441 476.199, 942.326 446 C 941.534 441.325, 940.490 435.167, 940.006 432.315 C 938.114 421.168, 931.897 396.780, 927.306 382.500 C 918.274 354.403, 905.534 325.296, 892.378 302.696 C 890.520 299.504, 889 296.711, 889 296.488 C 889 295.460, 873.982 272.406, 867.185 263 C 843.117 229.696, 812.089 197.241, 783.457 175.422 C 780.731 173.344, 775.655 169.439, 772.178 166.743 C 757.312 155.221, 733.281 140.334, 711 128.843 C 671.111 108.270, 627.754 94.554, 579 87.082 C 575.425 86.534, 570.925 85.844, 569 85.549 C 562.665 84.578, 521.657 82.067, 514 82.182 C 509.875 82.244, 497.950 82.864, 487.500 83.559 M 481 107.999 C 468.760 109.220, 455.202 110.950, 450 111.955 C 447.525 112.433, 442.800 113.329, 439.500 113.947 C 436.200 114.565, 431.700 115.485, 429.500 115.991 C 416.877 118.898, 411.069 120.341, 407.500 121.459 C 405.300 122.148, 401.475 123.290, 399 123.998 C 392.843 125.758, 376.950 130.917, 374.500 131.952 C 373.400 132.416, 370.925 133.482, 369 134.320 C 367.075 135.158, 363.025 136.810, 360 137.992 C 350.867 141.558, 315.096 159.475, 305.742 165.169 C 287.055 176.545, 261.748 195.332, 245.500 209.894 C 235.613 218.754, 213.336 241.735, 205.149 251.520 C 196.149 262.275, 182.827 279.829, 176.325 289.500 C 156.765 318.596, 135.028 365.059, 126.035 397 C 125.338 399.475, 124.422 402.625, 124 404 C 120.947 413.939, 116.239 435.353, 114.107 449 C 113.549 452.575, 112.840 457.112, 112.532 459.082 C 111.414 466.237, 109.006 493.644, 109.003 499.250 C 109 505.678, 109.901 506.292, 114.096 502.714 C 118.162 499.246, 140.886 480.779, 144.506 478 C 148.953 474.587, 204.227 429.841, 205.601 428.541 C 208.992 425.335, 266.869 379.131, 268.750 378.129 C 272.918 375.908, 276.139 379.017, 277.423 386.500 C 279.951 401.237, 282.878 408.645, 288.730 415.123 C 292.265 419.036, 300.453 424, 303.372 424 C 304.163 424, 306.695 425.574, 308.997 427.498 C 311.300 429.422, 314.497 431.771, 316.102 432.719 C 317.706 433.667, 318.902 434.793, 318.760 435.221 C 318.617 435.649, 314.415 439.262, 309.422 443.250 C 304.430 447.237, 292.309 457.025, 282.489 465 C 262.219 481.461, 242.905 497.074, 221.332 514.440 L 206.500 526.380 206.821 565.940 C 207.205 613.202, 207.092 614.047, 199.396 621.611 C 195.924 625.023, 192.690 627.166, 189.662 628.060 C 184.359 629.626, 184.033 630.384, 184.014 641.201 C 183.987 655.985, 187.246 664.184, 195.330 669.670 L 199.500 672.500 273 673.075 C 339.615 673.595, 346.922 673.812, 351 675.390 C 357.916 678.066, 365.533 681.922, 367.619 683.803 C 368.654 684.736, 371.140 686.723, 373.142 688.218 C 377.739 691.650, 385.377 701.755, 388.398 708.403 C 391.246 714.671, 392.574 720.558, 394.056 733.481 C 394.813 740.078, 395.984 745.008, 397.511 748.021 C 399.971 752.876, 406.907 759.881, 411.636 762.288 C 418.678 765.872, 424.775 766, 587.582 765.982 C 766.508 765.962, 760.180 766.188, 773.951 759.325 C 787.440 752.602, 797.697 740.557, 804.032 724 C 805.087 721.243, 805.514 704.046, 806.045 643 L 806.718 565.500 809.155 559 C 813.164 548.305, 816.658 542.438, 823.159 535.489 C 828.377 529.911, 829.108 528.698, 827.913 527.602 C 827.136 526.890, 821.775 522.547, 816 517.951 C 810.225 513.355, 805.275 509.325, 805 508.996 C 804.725 508.667, 797.506 502.795, 788.957 495.949 C 771.217 481.740, 737.358 454.396, 719.140 439.563 C 712.341 434.028, 705.313 428.375, 703.520 427 C 701.728 425.625, 685.269 412.350, 666.945 397.500 C 648.621 382.650, 626.624 364.897, 618.064 358.049 C 609.504 351.200, 602.275 345.323, 602 344.988 C 601.315 344.154, 536.106 291.545, 529.147 286.213 C 522.515 281.131, 520.586 280.538, 513.421 281.380 C 507.253 282.105, 506.988 281.688, 509.604 275.372 C 520.760 248.434, 529.006 235.509, 539.468 228.565 C 542.555 226.516, 546.861 222.514, 549.038 219.670 C 554.156 212.986, 556.090 211, 557.480 211 C 558.102 211, 561.511 213.388, 565.055 216.307 C 568.600 219.226, 577.602 226.539, 585.061 232.557 C 627.637 266.914, 651.340 286.090, 657.852 291.450 C 661.896 294.777, 666.667 298.625, 668.454 300 C 670.240 301.375, 677.363 307.072, 684.281 312.660 C 691.199 318.249, 697.830 323.129, 699.017 323.505 C 702.623 324.650, 707.490 323.142, 710.575 319.924 L 713.500 316.872 714 282.686 C 714.548 245.243, 714.521 245.404, 720.642 242.500 C 723.267 241.254, 729.825 241, 759.336 241 C 780.361 241, 795.933 241.404, 797.473 241.990 C 798.905 242.534, 801.184 244.175, 802.538 245.636 L 805 248.292 805 327.178 C 805 391.965, 805.246 406.654, 806.379 409.365 C 807.209 411.350, 810.920 415.224, 815.690 419.083 C 833.915 433.827, 888.536 477.911, 892.393 480.990 C 893.434 481.820, 895.684 483.674, 897.393 485.110 C 910.486 496.107, 922.363 505.024, 922.992 504.331 C 923.945 503.281, 921.661 472.223, 919.512 457 C 915.833 430.935, 905.100 388.259, 897.946 371.250 C 897.069 369.164, 896.494 367.742, 894.102 361.750 C 888.162 346.867, 878.208 326.546, 868.753 310 C 844.010 266.700, 808.682 225.980, 768 193.867 C 754.933 183.552, 740.057 173.014, 730.507 167.308 C 726.103 164.676, 721.150 161.714, 719.500 160.726 C 714.425 157.688, 678.830 140.295, 673 138.005 C 669.975 136.816, 665.925 135.158, 664 134.320 C 657.359 131.428, 656.466 131.096, 647.500 128.184 C 618.260 118.686, 597.079 113.736, 569.039 109.849 C 557.561 108.257, 547.658 107.761, 522 107.492 C 504.125 107.304, 485.675 107.532, 481 107.999 M 452.500 208.213 C 433.406 211.792, 422.612 214.254, 418.500 215.970 C 417.400 216.429, 413.800 217.818, 410.500 219.057 C 386.489 228.069, 359.217 246.592, 342.610 265.169 C 326.597 283.080, 312.838 307.886, 307.482 328.500 C 301.544 351.351, 301.348 383.618, 307.047 399.750 C 307.978 402.384, 308.734 403, 311.035 403 C 313.591 403, 314.973 401.362, 324.922 386.528 C 345.779 355.430, 366.508 329.700, 390.485 305.148 C 404.474 290.823, 420.630 276.296, 421.549 277.216 C 421.816 277.483, 418.153 281.706, 413.408 286.601 C 402.357 298, 388.017 315.073, 376.138 330.971 C 367.210 342.919, 346 374.288, 346 375.544 C 346 375.872, 344.720 378.021, 343.155 380.320 C 341.590 382.619, 338.351 388.100, 335.957 392.500 C 326.200 410.433, 325.515 412.523, 328.561 415.051 C 330.525 416.681, 335.080 415.699, 354 409.570 C 375.424 402.630, 391.083 395.062, 409.500 382.747 C 433.461 366.725, 451.113 347.251, 467.283 319 C 471.038 312.438, 487 279.648, 487 278.494 C 487 277.374, 499.403 253.039, 503.519 246.082 C 509.180 236.516, 521.102 223.737, 528.250 219.576 C 535.204 215.527, 534.640 213.723, 525.750 211.577 C 511.024 208.022, 500.135 206.997, 478.587 207.138 C 466.989 207.213, 455.250 207.697, 452.500 208.213 M 478.094 358.386 C 477.314 359.326, 477.033 364.397, 477.222 374.136 L 477.500 388.500 493.250 388.775 L 509 389.051 509 373.632 C 509 360.495, 508.766 358.124, 507.418 357.607 C 506.548 357.273, 499.853 357, 492.541 357 C 482.426 357, 478.970 357.332, 478.094 358.386 M 524.667 357.667 C 524.300 358.033, 524 365.245, 524 373.692 L 524 389.051 539.750 388.775 L 555.500 388.500 555.778 374.136 C 555.967 364.397, 555.686 359.326, 554.906 358.386 C 554.024 357.324, 550.439 357, 539.544 357 C 531.728 357, 525.033 357.300, 524.667 357.667 M 478.222 405.841 C 477.257 406.454, 477.013 410.307, 477.222 421.576 L 477.500 436.500 493 436.500 L 508.500 436.500 508.778 421.576 C 508.987 410.307, 508.743 406.454, 507.778 405.841 C 507.075 405.396, 500.425 405.031, 493 405.031 C 485.575 405.031, 478.925 405.396, 478.222 405.841 M 524.440 406.296 C 524.166 407.009, 524.068 414.096, 524.221 422.046 L 524.500 436.500 540 436.500 L 555.500 436.500 555.778 421.576 C 555.987 410.307, 555.743 406.454, 554.778 405.841 C 554.075 405.396, 547.073 405.024, 539.219 405.015 C 528.434 405.004, 524.815 405.317, 524.440 406.296 M 509.241 521.995 C 507.448 523.088, 505.088 525.448, 503.995 527.241 C 502.055 530.423, 502.007 532.440, 502.004 612.102 L 502 693.704 504.263 697.102 C 505.508 698.971, 508.320 701.400, 510.513 702.500 C 514.291 704.395, 516.496 704.500, 552.500 704.500 C 590.104 704.500, 590.548 704.476, 595.157 702.206 C 604.049 697.825, 603.500 703.762, 603.500 612 C 603.500 534.628, 603.425 531.350, 601.580 527.632 C 597.725 519.866, 598.627 520.007, 553 520.007 C 514.348 520.007, 512.351 520.098, 509.241 521.995 M 664.027 525.823 C 661.214 526.901, 658.710 528.790, 657.277 530.916 C 655.067 534.197, 655 534.989, 655 558 C 655 581.011, 655.067 581.803, 657.277 585.084 C 662.638 593.039, 681.344 594.429, 689.060 587.446 C 693.676 583.268, 694 581.353, 694 558.203 C 694 535.258, 693.575 532.640, 689.208 528.688 C 684.172 524.131, 672.043 522.751, 664.027 525.823 M 730.721 525.210 C 725.999 526.463, 721.473 530.886, 720.637 535.065 C 720.287 536.817, 720 547.763, 720 559.391 C 720 577.937, 720.224 580.959, 721.829 584.016 C 726.659 593.216, 747.050 594.810, 755.069 586.615 C 758.983 582.615, 760 576.722, 760 558.027 C 760 539.627, 758.805 532.929, 754.857 529.203 C 749.917 524.540, 739.647 522.841, 730.721 525.210 M 110.802 533.123 C 109.221 534.100, 111.620 561.953, 114.927 581 C 116.770 591.620, 117.150 593.578, 119.196 603 C 131.740 660.758, 160.370 720.836, 197.352 767 C 210.621 783.564, 228.338 802.268, 246.500 818.887 C 257.437 828.894, 288.563 852.378, 298.005 857.746 C 299.927 858.839, 305.325 862.105, 310 865.005 C 320.769 871.683, 342.452 882.632, 358.500 889.494 C 361.161 890.632, 365.818 892.415, 381.985 898.487 C 387.337 900.498, 398.741 904.203, 405 905.965 C 407.475 906.662, 410.625 907.592, 412 908.031 C 413.375 908.470, 418.550 909.748, 423.500 910.870 C 488.160 925.526, 554.265 924.904, 616.116 909.058 C 626.281 906.454, 651.817 898.457, 657.500 896.098 C 658.600 895.641, 660.625 894.799, 662 894.227 C 663.375 893.654, 666.525 892.428, 669 891.502 C 681.620 886.779, 707.421 874.138, 720.500 866.270 C 741.402 853.695, 744.742 851.462, 760.900 839.265 C 783.287 822.366, 802.236 804.974, 820.569 784.500 C 834.059 769.436, 850.660 747.857, 857.665 736.282 C 859.922 732.552, 864.355 725.225, 867.517 720 C 876.156 705.720, 886.272 685.653, 892.091 671.250 C 892.591 670.013, 893.510 667.763, 894.134 666.250 C 894.757 664.737, 895.657 662.487, 896.134 661.250 C 896.610 660.013, 897.434 657.987, 897.964 656.750 C 899.947 652.121, 907.914 627.144, 910.446 617.619 C 917.785 590.006, 924.118 547.718, 921.331 544.931 C 919.639 543.239, 865.056 542.353, 860.829 543.949 C 849.599 548.189, 841.900 554.843, 837.627 564 C 835.568 568.412, 835.516 570.005, 834.942 645.500 L 834.357 722.500 831.594 731.500 C 822.915 759.772, 801.924 781.254, 773.767 790.682 L 765.500 793.450 590.616 793.757 C 431.726 794.036, 415.219 793.916, 410.116 792.442 C 391.424 787.045, 373.829 770.464, 368.367 753.101 C 367.572 750.570, 366.325 743.325, 365.597 737 C 363.924 722.470, 361.477 716.544, 354.540 710.230 C 344.519 701.109, 349.532 701.630, 266 701.027 C 209.774 700.621, 191.795 700.197, 189.500 699.225 C 172.818 692.155, 161.779 679.766, 157.489 663.297 C 155.612 656.090, 155.408 624.708, 157.200 618.728 C 158.994 612.737, 166.855 604.657, 172.704 602.790 L 177.500 601.259 177.500 567.102 L 177.500 532.944 144.654 532.722 C 126.589 532.600, 111.356 532.780, 110.802 533.123 M 666 638.612 C 661.793 639.405, 659.023 641.227, 656.966 644.555 C 655.159 647.479, 655 649.616, 655 670.964 C 655 697.016, 655.352 698.574, 662.023 702 C 669.627 705.905, 682.764 705.333, 688.464 700.849 C 693.397 696.969, 694.004 693.626, 693.952 670.628 C 693.911 652.802, 693.638 648.967, 692.202 646.088 C 689.367 640.406, 686.496 638.983, 676.967 638.537 C 672.310 638.320, 667.375 638.353, 666 638.612 M 730.265 638.660 C 725.558 639.336, 721.471 643.900, 720.396 649.681 C 719.903 652.331, 719.725 663.809, 720 675.186 L 720.500 695.873 723.472 698.973 C 727.920 703.613, 735.714 705.608, 743.933 704.210 C 751.504 702.923, 754.767 700.812, 757.500 695.435 C 759.307 691.880, 759.500 689.522, 759.500 671 C 759.500 652.478, 759.307 650.120, 757.500 646.565 C 754.306 640.280, 751.517 638.839, 741.874 638.495 C 737.268 638.330, 732.044 638.404, 730.265 638.660" stroke="none" fill="#f9fafa" fill-rule="evenodd"/><path d="M 479.500 47.528 C 478.950 47.731, 474 48.369, 468.500 48.945 C 451.052 50.772, 433.603 53.477, 417 56.929 C 410.590 58.261, 380.983 65.870, 378 66.951 C 376.625 67.450, 371.450 69.273, 366.500 71.003 C 344.607 78.653, 330.219 84.506, 313 92.765 C 297.596 100.154, 264.349 119.370, 252.546 127.707 C 200.061 164.780, 160.711 204.643, 127.214 254.673 C 112.442 276.736, 95.337 307.589, 87.117 327 C 69.787 367.919, 58.632 407.066, 52.921 447 C 49.819 468.689, 49.004 482.146, 49.014 511.500 C 49.026 545.534, 50.704 568.176, 55.020 592.500 C 55.605 595.800, 56.510 600.975, 57.030 604 C 59.757 619.866, 72.091 664.107, 76.963 675.500 C 77.433 676.600, 79.472 681.775, 81.494 687 C 83.516 692.225, 85.874 698.075, 86.734 700 C 112.110 756.786, 143.234 802.282, 185.964 845.051 C 209.734 868.843, 229.842 885.507, 255.500 902.677 C 287.729 924.245, 329.061 945.044, 360.490 955.510 C 376.011 960.678, 400.793 968.200, 405.500 969.171 C 408.250 969.738, 412.300 970.607, 414.500 971.103 C 422.310 972.864, 438.492 975.827, 447 977.055 C 471.229 980.550, 478.472 980.960, 516 980.960 C 557.530 980.960, 564.961 980.423, 598 975.031 C 623.622 970.850, 652.486 962.759, 686.674 950.175 C 696.174 946.678, 697.029 946.297, 719.507 935.524 C 782.258 905.452, 836.528 862.285, 881.532 806.650 C 894.380 790.767, 911.045 766.687, 921.085 749.500 C 926.485 740.254, 941.016 711.859, 944.398 703.943 C 945.442 701.499, 947.087 697.700, 948.055 695.500 C 957.055 675.037, 968.563 639.411, 972.928 618.500 C 977.040 598.803, 978.626 590.177, 980.008 580 C 980.643 575.325, 981.576 568.763, 982.081 565.418 C 982.586 562.073, 982.991 540.473, 982.980 517.418 C 982.961 476.342, 982.590 469.504, 979.055 445 C 977.831 436.515, 974.872 420.353, 973.105 412.500 C 972.610 410.300, 971.884 406.925, 971.492 405 C 971.100 403.075, 969.455 396.775, 967.837 391 C 951.242 331.758, 926.355 281.450, 888.933 231.500 C 862.720 196.510, 828.066 162.552, 790.500 135.041 C 787.200 132.625, 782.839 129.377, 780.809 127.824 C 778.778 126.271, 776.834 125, 776.489 125 C 776.143 125, 773.979 123.713, 771.680 122.139 C 759.602 113.873, 720.822 92.488, 709 87.575 C 706.525 86.546, 702.475 84.826, 700 83.752 C 694.166 81.222, 693.030 80.769, 683.500 77.167 C 655.623 66.633, 644.510 63.373, 611.500 56.047 C 599.227 53.322, 586.320 51.379, 558.091 48.005 C 550.400 47.086, 481.821 46.669, 479.500 47.528 M 487.500 83.559 C 477.050 84.255, 466.700 85.112, 464.500 85.465 C 462.300 85.818, 457.575 86.550, 454 87.092 C 432.680 90.325, 424.976 91.975, 398.500 98.979 C 332.149 116.530, 260.732 158.758, 210.460 210.166 C 196.124 224.826, 185.298 236.811, 179.448 244.500 C 177.356 247.250, 173.530 252.228, 170.946 255.562 C 157.866 272.438, 138.001 304.879, 127.813 326 C 122.151 337.738, 117.845 347.270, 116.973 350 C 116.533 351.375, 113.877 358.516, 111.070 365.869 C 103.262 386.325, 95.525 413.918, 91.968 434 C 88.364 454.346, 87.498 461.086, 85.929 481 C 84.647 497.262, 85.296 544.594, 86.977 557.500 C 87.551 561.900, 88.483 569.100, 89.049 573.500 C 95.886 626.642, 116.557 686.157, 144.273 732.500 C 151.741 744.986, 164.717 764.392, 171.342 772.980 C 174.108 776.566, 177.750 781.296, 179.435 783.492 C 193.389 801.666, 225.535 834.152, 242.966 847.692 C 243.810 848.348, 248.100 851.730, 252.500 855.209 C 293.042 887.264, 343.396 913.170, 394 928.009 C 398.125 929.218, 402.625 930.568, 404 931.008 C 406.354 931.762, 408.702 932.329, 420.250 934.930 C 432.655 937.724, 437.272 938.559, 454 941.031 C 458.125 941.641, 464.200 942.541, 467.500 943.031 C 470.800 943.522, 483.282 944.457, 495.238 945.109 C 523.669 946.660, 549.802 945.343, 579 940.890 C 590.443 939.144, 598.309 937.793, 606 936.254 C 610.125 935.428, 614.625 934.538, 616 934.277 C 623.815 932.788, 654.422 923.271, 669 917.797 C 705.891 903.945, 751.775 878.391, 777.095 857.595 C 777.971 856.875, 781.796 853.879, 785.595 850.937 C 789.393 847.995, 793.257 844.893, 794.183 844.044 C 795.108 843.195, 798.332 840.475, 801.346 838 C 809.633 831.195, 836.653 803.741, 845.634 793 C 859.141 776.846, 884.312 741.805, 887.297 735 C 887.658 734.175, 889.336 731.250, 891.025 728.500 C 896.503 719.580, 913.755 683.821, 918.525 671.500 C 925.437 653.646, 931.557 633.942, 937.005 612 C 941.285 594.759, 944.191 576.173, 946.976 548.214 C 949.544 522.426, 947.441 476.199, 942.326 446 C 941.534 441.325, 940.490 435.167, 940.006 432.315 C 938.114 421.168, 931.897 396.780, 927.306 382.500 C 918.274 354.403, 905.534 325.296, 892.378 302.696 C 890.520 299.504, 889 296.711, 889 296.488 C 889 295.460, 873.982 272.406, 867.185 263 C 843.117 229.696, 812.089 197.241, 783.457 175.422 C 780.731 173.344, 775.655 169.439, 772.178 166.743 C 757.312 155.221, 733.281 140.334, 711 128.843 C 671.111 108.270, 627.754 94.554, 579 87.082 C 575.425 86.534, 570.925 85.844, 569 85.549 C 562.665 84.578, 521.657 82.067, 514 82.182 C 509.875 82.244, 497.950 82.864, 487.500 83.559 M 481 107.999 C 468.760 109.220, 455.202 110.950, 450 111.955 C 447.525 112.433, 442.800 113.329, 439.500 113.947 C 436.200 114.565, 431.700 115.485, 429.500 115.991 C 416.877 118.898, 411.069 120.341, 407.500 121.459 C 405.300 122.148, 401.475 123.290, 399 123.998 C 392.843 125.758, 376.950 130.917, 374.500 131.952 C 373.400 132.416, 370.925 133.482, 369 134.320 C 367.075 135.158, 363.025 136.810, 360 137.992 C 350.867 141.558, 315.096 159.475, 305.742 165.169 C 287.055 176.545, 261.748 195.332, 245.500 209.894 C 235.613 218.754, 213.336 241.735, 205.149 251.520 C 196.149 262.275, 182.827 279.829, 176.325 289.500 C 156.765 318.596, 135.028 365.059, 126.035 397 C 125.338 399.475, 124.422 402.625, 124 404 C 120.947 413.939, 116.239 435.353, 114.107 449 C 113.549 452.575, 112.840 457.112, 112.532 459.082 C 111.414 466.237, 109.006 493.644, 109.003 499.250 C 109 505.678, 109.901 506.292, 114.096 502.714 C 118.162 499.246, 140.886 480.779, 144.506 478 C 148.953 474.587, 204.227 429.841, 205.601 428.541 C 208.992 425.335, 266.869 379.131, 268.750 378.129 C 272.918 375.908, 276.139 379.017, 277.423 386.500 C 279.951 401.237, 282.878 408.645, 288.730 415.123 C 292.265 419.036, 300.453 424, 303.372 424 C 304.163 424, 306.695 425.574, 308.997 427.498 C 311.300 429.422, 314.497 431.771, 316.102 432.719 C 317.706 433.667, 318.902 434.793, 318.760 435.221 C 318.617 435.649, 314.415 439.262, 309.422 443.250 C 304.430 447.237, 292.309 457.025, 282.489 465 C 262.219 481.461, 242.905 497.074, 221.332 514.440 L 206.500 526.380 206.821 565.940 C 207.205 613.202, 207.092 614.047, 199.396 621.611 C 195.924 625.023, 192.690 627.166, 189.662 628.060 C 184.359 629.626, 184.033 630.384, 184.014 641.201 C 183.987 655.985, 187.246 664.184, 195.330 669.670 L 199.500 672.500 273 673.075 C 339.615 673.595, 346.922 673.812, 351 675.390 C 357.916 678.066, 365.533 681.922, 367.619 683.803 C 368.654 684.736, 371.140 686.723, 373.142 688.218 C 377.739 691.650, 385.377 701.755, 388.398 708.403 C 391.246 714.671, 392.574 720.558, 394.056 733.481 C 394.813 740.078, 395.984 745.008, 397.511 748.021 C 399.971 752.876, 406.907 759.881, 411.636 762.288 C 418.678 765.872, 424.775 766, 587.582 765.982 C 766.508 765.962, 760.180 766.188, 773.951 759.325 C 787.440 752.602, 797.697 740.557, 804.032 724 C 805.087 721.243, 805.514 704.046, 806.045 643 L 806.718 565.500 809.155 559 C 813.164 548.305, 816.658 542.438, 823.159 535.489 C 828.377 529.911, 829.108 528.698, 827.913 527.602 C 827.136 526.890, 821.775 522.547, 816 517.951 C 810.225 513.355, 805.275 509.325, 805 508.996 C 804.725 508.667, 797.506 502.795, 788.957 495.949 C 771.217 481.740, 737.358 454.396, 719.140 439.563 C 712.341 434.028, 705.313 428.375, 703.520 427 C 701.728 425.625, 685.269 412.350, 666.945 397.500 C 648.621 382.650, 626.624 364.897, 618.064 358.049 C 609.504 351.200, 602.275 345.323, 602 344.988 C 601.315 344.154, 536.106 291.545, 529.147 286.213 C 522.515 281.131, 520.586 280.538, 513.421 281.380 C 507.253 282.105, 506.988 281.688, 509.604 275.372 C 520.760 248.434, 529.006 235.509, 539.468 228.565 C 542.555 226.516, 546.861 222.514, 549.038 219.670 C 554.156 212.986, 556.090 211, 557.480 211 C 558.102 211, 561.511 213.388, 565.055 216.307 C 568.600 219.226, 577.602 226.539, 585.061 232.557 C 627.637 266.914, 651.340 286.090, 657.852 291.450 C 661.896 294.777, 666.667 298.625, 668.454 300 C 670.240 301.375, 677.363 307.072, 684.281 312.660 C 691.199 318.249, 697.830 323.129, 699.017 323.505 C 702.623 324.650, 707.490 323.142, 710.575 319.924 L 713.500 316.872 714 282.686 C 714.548 245.243, 714.521 245.404, 720.642 242.500 C 723.267 241.254, 729.825 241, 759.336 241 C 780.361 241, 795.933 241.404, 797.473 241.990 C 798.905 242.534, 801.184 244.175, 802.538 245.636 L 805 248.292 805 327.178 C 805 391.965, 805.246 406.654, 806.379 409.365 C 807.209 411.350, 810.920 415.224, 815.690 419.083 C 833.915 433.827, 888.536 477.911, 892.393 480.990 C 893.434 481.820, 895.684 483.674, 897.393 485.110 C 910.486 496.107, 922.363 505.024, 922.992 504.331 C 923.945 503.281, 921.661 472.223, 919.512 457 C 915.833 430.935, 905.100 388.259, 897.946 371.250 C 897.069 369.164, 896.494 367.742, 894.102 361.750 C 888.162 346.867, 878.208 326.546, 868.753 310 C 844.010 266.700, 808.682 225.980, 768 193.867 C 754.933 183.552, 740.057 173.014, 730.507 167.308 C 726.103 164.676, 721.150 161.714, 719.500 160.726 C 714.425 157.688, 678.830 140.295, 673 138.005 C 669.975 136.816, 665.925 135.158, 664 134.320 C 657.359 131.428, 656.466 131.096, 647.500 128.184 C 618.260 118.686, 597.079 113.736, 569.039 109.849 C 557.561 108.257, 547.658 107.761, 522 107.492 C 504.125 107.304, 485.675 107.532, 481 107.999 M 452.500 208.213 C 433.406 211.792, 422.612 214.254, 418.500 215.970 C 417.400 216.429, 413.800 217.818, 410.500 219.057 C 386.489 228.069, 359.217 246.592, 342.610 265.169 C 326.597 283.080, 312.838 307.886, 307.482 328.500 C 301.544 351.351, 301.348 383.618, 307.047 399.750 C 307.978 402.384, 308.734 403, 311.035 403 C 313.591 403, 314.973 401.362, 324.922 386.528 C 345.779 355.430, 366.508 329.700, 390.485 305.148 C 404.474 290.823, 420.630 276.296, 421.549 277.216 C 421.816 277.483, 418.153 281.706, 413.408 286.601 C 402.357 298, 388.017 315.073, 376.138 330.971 C 367.210 342.919, 346 374.288, 346 375.544 C 346 375.872, 344.720 378.021, 343.155 380.320 C 341.590 382.619, 338.351 388.100, 335.957 392.500 C 326.200 410.433, 325.515 412.523, 328.561 415.051 C 330.525 416.681, 335.080 415.699, 354 409.570 C 375.424 402.630, 391.083 395.062, 409.500 382.747 C 433.461 366.725, 451.113 347.251, 467.283 319 C 471.038 312.438, 487 279.648, 487 278.494 C 487 277.374, 499.403 253.039, 503.519 246.082 C 509.180 236.516, 521.102 223.737, 528.250 219.576 C 535.204 215.527, 534.640 213.723, 525.750 211.577 C 511.024 208.022, 500.135 206.997, 478.587 207.138 C 466.989 207.213, 455.250 207.697, 452.500 208.213 M 478.094 358.386 C 477.314 359.326, 477.033 364.397, 477.222 374.136 L 477.500 388.500 493.250 388.775 L 509 389.051 509 373.632 C 509 360.495, 508.766 358.124, 507.418 357.607 C 506.548 357.273, 499.853 357, 492.541 357 C 482.426 357, 478.970 357.332, 478.094 358.386 M 524.667 357.667 C 524.300 358.033, 524 365.245, 524 373.692 L 524 389.051 539.750 388.775 L 555.500 388.500 555.778 374.136 C 555.967 364.397, 555.686 359.326, 554.906 358.386 C 554.024 357.324, 550.439 357, 539.544 357 C 531.728 357, 525.033 357.300, 524.667 357.667 M 478.222 405.841 C 477.257 406.454, 477.013 410.307, 477.222 421.576 L 477.500 436.500 493 436.500 L 508.500 436.500 508.778 421.576 C 508.987 410.307, 508.743 406.454, 507.778 405.841 C 507.075 405.396, 500.425 405.031, 493 405.031 C 485.575 405.031, 478.925 405.396, 478.222 405.841 M 524.440 406.296 C 524.166 407.009, 524.068 414.096, 524.221 422.046 L 524.500 436.500 540 436.500 L 555.500 436.500 555.778 421.576 C 555.987 410.307, 555.743 406.454, 554.778 405.841 C 554.075 405.396, 547.073 405.024, 539.219 405.015 C 528.434 405.004, 524.815 405.317, 524.440 406.296 M 509.241 521.995 C 507.448 523.088, 505.088 525.448, 503.995 527.241 C 502.055 530.423, 502.007 532.440, 502.004 612.102 L 502 693.704 504.263 697.102 C 505.508 698.971, 508.320 701.400, 510.513 702.500 C 514.291 704.395, 516.496 704.500, 552.500 704.500 C 590.104 704.500, 590.548 704.476, 595.157 702.206 C 604.049 697.825, 603.500 703.762, 603.500 612 C 603.500 534.628, 603.425 531.350, 601.580 527.632 C 597.725 519.866, 598.627 520.007, 553 520.007 C 514.348 520.007, 512.351 520.098, 509.241 521.995 M 664.027 525.823 C 661.214 526.901, 658.710 528.790, 657.277 530.916 C 655.067 534.197, 655 534.989, 655 558 C 655 581.011, 655.067 581.803, 657.277 585.084 C 662.638 593.039, 681.344 594.429, 689.060 587.446 C 693.676 583.268, 694 581.353, 694 558.203 C 694 535.258, 693.575 532.640, 689.208 528.688 C 684.172 524.131, 672.043 522.751, 664.027 525.823 M 730.721 525.210 C 725.999 526.463, 721.473 530.886, 720.637 535.065 C 720.287 536.817, 720 547.763, 720 559.391 C 720 577.937, 720.224 580.959, 721.829 584.016 C 726.659 593.216, 747.050 594.810, 755.069 586.615 C 758.983 582.615, 760 576.722, 760 558.027 C 760 539.627, 758.805 532.929, 754.857 529.203 C 749.917 524.540, 739.647 522.841, 730.721 525.210 M 110.802 533.123 C 109.221 534.100, 111.620 561.953, 114.927 581 C 116.770 591.620, 117.150 593.578, 119.196 603 C 131.740 660.758, 160.370 720.836, 197.352 767 C 210.621 783.564, 228.338 802.268, 246.500 818.887 C 257.437 828.894, 288.563 852.378, 298.005 857.746 C 299.927 858.839, 305.325 862.105, 310 865.005 C 320.769 871.683, 342.452 882.632, 358.500 889.494 C 361.161 890.632, 365.818 892.415, 381.985 898.487 C 387.337 900.498, 398.741 904.203, 405 905.965 C 407.475 906.662, 410.625 907.592, 412 908.031 C 413.375 908.470, 418.550 909.748, 423.500 910.870 C 488.160 925.526, 554.265 924.904, 616.116 909.058 C 626.281 906.454, 651.817 898.457, 657.500 896.098 C 658.600 895.641, 660.625 894.799, 662 894.227 C 663.375 893.654, 666.525 892.428, 669 891.502 C 681.620 886.779, 707.421 874.138, 720.500 866.270 C 741.402 853.695, 744.742 851.462, 760.900 839.265 C 783.287 822.366, 802.236 804.974, 820.569 784.500 C 834.059 769.436, 850.660 747.857, 857.665 736.282 C 859.922 732.552, 864.355 725.225, 867.517 720 C 876.156 705.720, 886.272 685.653, 892.091 671.250 C 892.591 670.013, 893.510 667.763, 894.134 666.250 C 894.757 664.737, 895.657 662.487, 896.134 661.250 C 896.610 660.013, 897.434 657.987, 897.964 656.750 C 899.947 652.121, 907.914 627.144, 910.446 617.619 C 917.785 590.006, 924.118 547.718, 921.331 544.931 C 919.639 543.239, 865.056 542.353, 860.829 543.949 C 849.599 548.189, 841.900 554.843, 837.627 564 C 835.568 568.412, 835.516 570.005, 834.942 645.500 L 834.357 722.500 831.594 731.500 C 822.915 759.772, 801.924 781.254, 773.767 790.682 L 765.500 793.450 590.616 793.757 C 431.726 794.036, 415.219 793.916, 410.116 792.442 C 391.424 787.045, 373.829 770.464, 368.367 753.101 C 367.572 750.570, 366.325 743.325, 365.597 737 C 363.924 722.470, 361.477 716.544, 354.540 710.230 C 344.519 701.109, 349.532 701.630, 266 701.027 C 209.774 700.621, 191.795 700.197, 189.500 699.225 C 172.818 692.155, 161.779 679.766, 157.489 663.297 C 155.612 656.090, 155.408 624.708, 157.200 618.728 C 158.994 612.737, 166.855 604.657, 172.704 602.790 L 177.500 601.259 177.500 567.102 L 177.500 532.944 144.654 532.722 C 126.589 532.600, 111.356 532.780, 110.802 533.123 M 666 638.612 C 661.793 639.405, 659.023 641.227, 656.966 644.555 C 655.159 647.479, 655 649.616, 655 670.964 C 655 697.016, 655.352 698.574, 662.023 702 C 669.627 705.905, 682.764 705.333, 688.464 700.849 C 693.397 696.969, 694.004 693.626, 693.952 670.628 C 693.911 652.802, 693.638 648.967, 692.202 646.088 C 689.367 640.406, 686.496 638.983, 676.967 638.537 C 672.310 638.320, 667.375 638.353, 666 638.612 M 730.265 638.660 C 725.558 639.336, 721.471 643.900, 720.396 649.681 C 719.903 652.331, 719.725 663.809, 720 675.186 L 720.500 695.873 723.472 698.973 C 727.920 703.613, 735.714 705.608, 743.933 704.210 C 751.504 702.923, 754.767 700.812, 757.500 695.435 C 759.307 691.880, 759.500 689.522, 759.500 671 C 759.500 652.478, 759.307 650.120, 757.500 646.565 C 754.306 640.280, 751.517 638.839, 741.874 638.495 C 737.268 638.330, 732.044 638.404, 730.265 638.660" stroke="none" fill="#164e4d" fill-rule="evenodd"/></svg>